%FSLAX46Y46*%
%MOMM*%
%TF.FileFunction,Copper,L1,Top*%
%ADD15C,0.8000*%
%ADD14C,0.3000*%
%ADD13C,1.7000*%
%ADD12R,1.7000X1.7000*%
%ADD11R,1.4000X1.0250*%
%ADD10R,1.0250X1.4000*%
%LPD*%
D10*
X4087500Y15000000D03*
X5912500Y15000000D03*
D11*
X9000000Y10912500D03*
X9000000Y9087500D03*
D11*
X15000000Y10912500D03*
X15000000Y9087500D03*
D11*
X21000000Y10912500D03*
X21000000Y9087500D03*
D11*
X27000000Y10912500D03*
X27000000Y9087500D03*
D10*
X11087500Y15000000D03*
X12912500Y15000000D03*
D10*
X17087500Y15000000D03*
X18912500Y15000000D03*
D10*
X23087500Y15000000D03*
X24912500Y15000000D03*
D12*
X11190000Y2800000D03*
X30500000Y16270000D03*
D13*
X13730000Y2800000D03*
X16270000Y2800000D03*
X18810000Y2800000D03*
X30500000Y13730000D03*
D14*
X5912500Y15000000D02*
X11087500Y15000000D01*
X9000000Y10912500D02*
X9000000Y15000000D01*
X12912500Y15000000D02*
X17087500Y15000000D01*
X15000000Y10912500D02*
X15000000Y15000000D01*
X18912500Y15000000D02*
X23087500Y15000000D01*
X21000000Y10912500D02*
X21000000Y15000000D01*
X24912500Y15000000D02*
X27000000Y15000000D01*
X28270000Y16270000D01*
X30500000Y16270000D01*
X27000000Y10912500D02*
X27000000Y15000000D01*
X4087500Y15000000D02*
X2400000Y15000000D01*
X9000000Y9087500D02*
X9000000Y7190000D01*
X11190000Y5000000D01*
X11190000Y2800000D01*
X15000000Y9087500D02*
X15000000Y6270000D01*
X13730000Y5000000D01*
X13730000Y2800000D01*
X21000000Y9087500D02*
X21000000Y7500000D01*
X17500000Y7500000D01*
X16270000Y6270000D01*
X16270000Y2800000D01*
X27000000Y9087500D02*
X27000000Y6000000D01*
X20040000Y6000000D01*
X18810000Y4770000D01*
X18810000Y2800000D01*
D15*
X2400000Y15000000D03*
M02*
