%FSLAX46Y46*%
%MOMM*%
%TF.FileFunction,Copper,L2,Bot*%
%ADD12C,0.8000*%
%ADD11C,1.7000*%
%ADD10R,1.7000X1.7000*%
%LPD*%
G36*
X300000Y300000D02*
X300000Y19700000D01*
X32700000Y19700000D01*
X32700000Y300000D01*
X300000Y300000D01*
G37*
%LPC*%
G36*
X12384222Y2682379D02*
X12390000Y2800000D01*
X12384222Y2917621D01*
X12366942Y3034108D01*
X12338328Y3148342D01*
X12298655Y3259220D01*
X12248306Y3365676D01*
X12187764Y3466684D01*
X12117613Y3561272D01*
X12038528Y3648528D01*
X11951272Y3727613D01*
X11856684Y3797764D01*
X11755676Y3858306D01*
X11649220Y3908655D01*
X11538342Y3948328D01*
X11424108Y3976942D01*
X11307621Y3994222D01*
X11190000Y4000000D01*
X11072379Y3994222D01*
X10955892Y3976942D01*
X10841658Y3948328D01*
X10730780Y3908655D01*
X10624324Y3858306D01*
X10523316Y3797764D01*
X10428728Y3727613D01*
X10341472Y3648528D01*
X10262387Y3561272D01*
X10192236Y3466684D01*
X10131694Y3365676D01*
X10081345Y3259220D01*
X10041672Y3148342D01*
X10013058Y3034108D01*
X9995778Y2917621D01*
X9990000Y2800000D01*
X9995778Y2682379D01*
X10013058Y2565892D01*
X10041672Y2451658D01*
X10081345Y2340780D01*
X10131694Y2234324D01*
X10192236Y2133316D01*
X10262387Y2038728D01*
X10341472Y1951472D01*
X10428728Y1872387D01*
X10523316Y1802236D01*
X10624324Y1741694D01*
X10730780Y1691345D01*
X10841658Y1651672D01*
X10955892Y1623058D01*
X11072379Y1605778D01*
X11190000Y1600000D01*
X11307621Y1605778D01*
X11424108Y1623058D01*
X11538342Y1651672D01*
X11649220Y1691345D01*
X11755676Y1741694D01*
X11856684Y1802236D01*
X11951272Y1872387D01*
X12038528Y1951472D01*
X12117613Y2038728D01*
X12187764Y2133316D01*
X12248306Y2234324D01*
X12298655Y2340780D01*
X12338328Y2451658D01*
X12366942Y2565892D01*
X12384222Y2682379D01*
G37*
G36*
X14924222Y2682379D02*
X14930000Y2800000D01*
X14924222Y2917621D01*
X14906942Y3034108D01*
X14878328Y3148342D01*
X14838655Y3259220D01*
X14788306Y3365676D01*
X14727764Y3466684D01*
X14657613Y3561272D01*
X14578528Y3648528D01*
X14491272Y3727613D01*
X14396684Y3797764D01*
X14295676Y3858306D01*
X14189220Y3908655D01*
X14078342Y3948328D01*
X13964108Y3976942D01*
X13847621Y3994222D01*
X13730000Y4000000D01*
X13612379Y3994222D01*
X13495892Y3976942D01*
X13381658Y3948328D01*
X13270780Y3908655D01*
X13164324Y3858306D01*
X13063316Y3797764D01*
X12968728Y3727613D01*
X12881472Y3648528D01*
X12802387Y3561272D01*
X12732236Y3466684D01*
X12671694Y3365676D01*
X12621345Y3259220D01*
X12581672Y3148342D01*
X12553058Y3034108D01*
X12535778Y2917621D01*
X12530000Y2800000D01*
X12535778Y2682379D01*
X12553058Y2565892D01*
X12581672Y2451658D01*
X12621345Y2340780D01*
X12671694Y2234324D01*
X12732236Y2133316D01*
X12802387Y2038728D01*
X12881472Y1951472D01*
X12968728Y1872387D01*
X13063316Y1802236D01*
X13164324Y1741694D01*
X13270780Y1691345D01*
X13381658Y1651672D01*
X13495892Y1623058D01*
X13612379Y1605778D01*
X13730000Y1600000D01*
X13847621Y1605778D01*
X13964108Y1623058D01*
X14078342Y1651672D01*
X14189220Y1691345D01*
X14295676Y1741694D01*
X14396684Y1802236D01*
X14491272Y1872387D01*
X14578528Y1951472D01*
X14657613Y2038728D01*
X14727764Y2133316D01*
X14788306Y2234324D01*
X14838655Y2340780D01*
X14878328Y2451658D01*
X14906942Y2565892D01*
X14924222Y2682379D01*
G37*
G36*
X17464222Y2682379D02*
X17470000Y2800000D01*
X17464222Y2917621D01*
X17446942Y3034108D01*
X17418328Y3148342D01*
X17378655Y3259220D01*
X17328306Y3365676D01*
X17267764Y3466684D01*
X17197613Y3561272D01*
X17118528Y3648528D01*
X17031272Y3727613D01*
X16936684Y3797764D01*
X16835676Y3858306D01*
X16729220Y3908655D01*
X16618342Y3948328D01*
X16504108Y3976942D01*
X16387621Y3994222D01*
X16270000Y4000000D01*
X16152379Y3994222D01*
X16035892Y3976942D01*
X15921658Y3948328D01*
X15810780Y3908655D01*
X15704324Y3858306D01*
X15603316Y3797764D01*
X15508728Y3727613D01*
X15421472Y3648528D01*
X15342387Y3561272D01*
X15272236Y3466684D01*
X15211694Y3365676D01*
X15161345Y3259220D01*
X15121672Y3148342D01*
X15093058Y3034108D01*
X15075778Y2917621D01*
X15070000Y2800000D01*
X15075778Y2682379D01*
X15093058Y2565892D01*
X15121672Y2451658D01*
X15161345Y2340780D01*
X15211694Y2234324D01*
X15272236Y2133316D01*
X15342387Y2038728D01*
X15421472Y1951472D01*
X15508728Y1872387D01*
X15603316Y1802236D01*
X15704324Y1741694D01*
X15810780Y1691345D01*
X15921658Y1651672D01*
X16035892Y1623058D01*
X16152379Y1605778D01*
X16270000Y1600000D01*
X16387621Y1605778D01*
X16504108Y1623058D01*
X16618342Y1651672D01*
X16729220Y1691345D01*
X16835676Y1741694D01*
X16936684Y1802236D01*
X17031272Y1872387D01*
X17118528Y1951472D01*
X17197613Y2038728D01*
X17267764Y2133316D01*
X17328306Y2234324D01*
X17378655Y2340780D01*
X17418328Y2451658D01*
X17446942Y2565892D01*
X17464222Y2682379D01*
G37*
G36*
X19986942Y2565892D02*
X20004222Y2682379D01*
X20010000Y2800000D01*
X20004222Y2917621D01*
X19986942Y3034108D01*
X19958328Y3148342D01*
X19918655Y3259220D01*
X19868306Y3365676D01*
X19807764Y3466684D01*
X19737613Y3561272D01*
X19658528Y3648528D01*
X19571272Y3727613D01*
X19476684Y3797764D01*
X19375676Y3858306D01*
X19269220Y3908655D01*
X19158342Y3948328D01*
X19044108Y3976942D01*
X18927621Y3994222D01*
X18810000Y4000000D01*
X18692379Y3994222D01*
X18575892Y3976942D01*
X18461658Y3948328D01*
X18350780Y3908655D01*
X18244324Y3858306D01*
X18143316Y3797764D01*
X18048728Y3727613D01*
X17961472Y3648528D01*
X17882387Y3561272D01*
X17812236Y3466684D01*
X17751694Y3365676D01*
X17701345Y3259220D01*
X17661672Y3148342D01*
X17633058Y3034108D01*
X17615778Y2917621D01*
X17610000Y2800000D01*
X17615778Y2682379D01*
X17633058Y2565892D01*
X17661672Y2451658D01*
X17701345Y2340780D01*
X17751694Y2234324D01*
X17812236Y2133316D01*
X17882387Y2038728D01*
X17961472Y1951472D01*
X18048728Y1872387D01*
X18143316Y1802236D01*
X18244324Y1741694D01*
X18350780Y1691345D01*
X18461658Y1651672D01*
X18575892Y1623058D01*
X18692379Y1605778D01*
X18810000Y1600000D01*
X18927621Y1605778D01*
X19044108Y1623058D01*
X19158342Y1651672D01*
X19269220Y1691345D01*
X19375676Y1741694D01*
X19476684Y1802236D01*
X19571272Y1872387D01*
X19658528Y1951472D01*
X19737613Y2038728D01*
X19807764Y2133316D01*
X19868306Y2234324D01*
X19918655Y2340780D01*
X19958328Y2451658D01*
X19986942Y2565892D01*
G37*
G36*
X31676942Y16035892D02*
X31694222Y16152379D01*
X31700000Y16270000D01*
X31694222Y16387621D01*
X31676942Y16504108D01*
X31648328Y16618342D01*
X31608655Y16729220D01*
X31558306Y16835676D01*
X31497764Y16936684D01*
X31427613Y17031272D01*
X31348528Y17118528D01*
X31261272Y17197613D01*
X31166684Y17267764D01*
X31065676Y17328306D01*
X30959220Y17378655D01*
X30848342Y17418328D01*
X30734108Y17446942D01*
X30617621Y17464222D01*
X30500000Y17470000D01*
X30382379Y17464222D01*
X30265892Y17446942D01*
X30151658Y17418328D01*
X30040780Y17378655D01*
X29934324Y17328306D01*
X29833316Y17267764D01*
X29738728Y17197613D01*
X29651472Y17118528D01*
X29572387Y17031272D01*
X29502236Y16936684D01*
X29441694Y16835676D01*
X29391345Y16729220D01*
X29351672Y16618342D01*
X29323058Y16504108D01*
X29305778Y16387621D01*
X29300000Y16270000D01*
X29305778Y16152379D01*
X29323058Y16035892D01*
X29351672Y15921658D01*
X29391345Y15810780D01*
X29441694Y15704324D01*
X29502236Y15603316D01*
X29572387Y15508728D01*
X29651472Y15421472D01*
X29738728Y15342387D01*
X29833316Y15272236D01*
X29934324Y15211694D01*
X30040780Y15161345D01*
X30151658Y15121672D01*
X30265892Y15093058D01*
X30382379Y15075778D01*
X30500000Y15070000D01*
X30617621Y15075778D01*
X30734108Y15093058D01*
X30848342Y15121672D01*
X30959220Y15161345D01*
X31065676Y15211694D01*
X31166684Y15272236D01*
X31261272Y15342387D01*
X31348528Y15421472D01*
X31427613Y15508728D01*
X31497764Y15603316D01*
X31558306Y15704324D01*
X31608655Y15810780D01*
X31648328Y15921658D01*
X31676942Y16035892D01*
G37*
%LPD*%
D10*
X11190000Y2800000D03*
X30500000Y16270000D03*
D11*
X13730000Y2800000D03*
X16270000Y2800000D03*
X18810000Y2800000D03*
X30500000Y13730000D03*
D12*
X2400000Y15000000D03*
M02*
